<svg width="18" height="18" viewBox="0 0 18 18" fill="none" xmlns="http://www.w3.org/2000/svg">
<g clip-path="url(#clip0_9966_17)">
<path d="M9 18C13.9706 18 18 13.9706 18 9C18 4.02944 13.9706 0 9 0C4.02944 0 0 4.02944 0 9C0 13.9706 4.02944 18 9 18Z" fill="#32BA7C"/>
<path d="M6.70032 13.0599L11.3281 17.6877C15.1609 16.6656 18 13.1735 18 9C18 8.91482 18 8.82965 18 8.74448L14.3659 5.39432L6.70032 13.0599Z" fill="#0AA06E"/>
<path d="M9.22713 11.0158C9.62461 11.4132 9.62461 12.0946 9.22713 12.4921L8.40379 13.3154C8.00631 13.7129 7.32492 13.7129 6.92744 13.3154L3.32177 9.68138C2.92429 9.2839 2.92429 8.60251 3.32177 8.20504L4.14511 7.38169C4.54259 6.98422 5.22397 6.98422 5.62145 7.38169L9.22713 11.0158Z" fill="white"/>
<path d="M12.3785 4.74131C12.776 4.34384 13.4574 4.34384 13.8549 4.74131L14.6782 5.56466C15.0757 5.96213 15.0757 6.64352 14.6782 7.041L8.43217 13.2587C8.0347 13.6561 7.35331 13.6561 6.95583 13.2587L6.13249 12.4353C5.73501 12.0378 5.73501 11.3565 6.13249 10.959L12.3785 4.74131Z" fill="white"/>
</g>
<defs>
<clipPath id="clip0_9966_17">
<rect width="18" height="18" fill="white"/>
</clipPath>
</defs>
</svg>
