<svg width="75" height="75" viewBox="0 0 75 75" fill="none" xmlns="http://www.w3.org/2000/svg">
<g clip-path="url(#clip0_1_179)">
<path d="M46.2534 13.4709H54.6764L46.2534 3.89185V13.4709Z" fill="black"/>
<path d="M55.1889 31.4928C55.9841 31.4928 56.7755 31.5426 57.5596 31.6415V18.2038H43.7921C42.4829 18.2038 41.5119 17.1958 41.5119 15.8889V0H5.9516C5.85112 0 5.76923 0.0815705 5.76923 0.182051V74.818C5.76923 74.9184 5.85112 75 5.9516 75H57.3774C57.478 75 57.5598 74.9184 57.5598 74.818V68.8439C56.7756 68.9429 55.9843 68.9926 55.1891 68.9926C45.6349 68.9926 37.7242 61.8348 36.5551 52.6091H13.7931V47.8761H36.555C37.724 38.6505 45.6349 31.4928 55.1889 31.4928ZM37.5 60.6189V65.3519H13.7931V60.6189H37.5ZM13.7931 9.64808H33.4881V14.3811H13.7931V9.64808ZM13.7931 22.3907H49.9005V27.1237H13.7931V22.3907ZM37.5 39.8665H13.7931V35.1335H37.5V39.8665Z" fill="black"/>
<path d="M55.1889 36.2258C47.4463 36.2258 41.1471 42.5138 41.1471 50.2428C41.1471 57.9718 47.4461 64.2598 55.1889 64.2598C62.9317 64.2598 69.2308 57.9718 69.2308 50.2428C69.2308 42.5138 62.9317 36.2258 55.1889 36.2258ZM54.9601 56.7401C54.159 57.5978 52.8024 57.7332 51.8473 57.0513L46.4117 53.172L49.1692 49.3218L52.9115 51.9927L60.7768 43.5709L64.2449 46.7984L54.9601 56.7401Z" fill="#EB7150"/>
</g>
<defs>
<clipPath id="clip0_1_179">
<rect width="75" height="75" fill="white"/>
</clipPath>
</defs>
</svg>
