<svg width="75" height="75" viewBox="0 0 75 75" fill="none" xmlns="http://www.w3.org/2000/svg">
<path d="M45.4258 69.4654L35.3054 69.4651V59.5411H15.1822V55.1522H39.4976L45.0324 49.6175H15.1822V45.2287H49.4212L54.956 39.6939H15.1822V35.3051H59.3448L65.0764 29.5734V2.76738C65.0764 1.24146 63.835 0 62.309 0C60.7831 0 59.5417 1.24146 59.5417 2.76738C59.5417 4.29302 60.7828 5.53418 62.3086 5.53418H62.309V9.923L9.92358 9.92344V75H65.0764V49.8149L45.4258 69.4654ZM15.1822 25.3816H39.9708V29.7705H15.1822V25.3816Z" fill="black"/>
<path d="M2.7668 5.53486L55.7093 5.53442C55.3509 4.68276 55.1528 3.7479 55.1528 2.76763C55.1528 1.78721 55.3512 0.851904 55.7096 0.000244154H2.76738C1.24146 9.76692e-05 0 1.24155 0 2.76748C0 4.29355 1.24131 5.53486 2.7668 5.53486Z" fill="black"/>
<path d="M75 32.5381C75 31.7988 74.7122 31.1039 74.1895 30.5811C73.1104 29.5021 71.3546 29.5021 70.2754 30.5811L68.3187 32.5378L72.2328 36.4519L74.1895 34.4952C74.7122 33.9725 75 33.2774 75 32.5381Z" fill="#EB7150"/>
<path d="M45.7055 62.9792L41.7916 59.0652L39.6943 61.1624V65.0765L43.6081 65.0766L45.7055 62.9792Z" fill="#EB7150"/>
<path d="M44.8855 55.9618L65.2029 35.6443L69.1163 39.5577L48.7988 59.8752L44.8855 55.9618Z" fill="#EB7150"/>
</svg>
