<svg width="18" height="18" viewBox="0 0 18 18" fill="none" xmlns="http://www.w3.org/2000/svg">
<g clip-path="url(#clip0_1_79)">
<path fill-rule="evenodd" clip-rule="evenodd" d="M16.05 13.032C16.05 14.892 14.61 16.4023 12.8409 16.4023H5.15916C3.39002 16.4023 1.95002 14.892 1.95002 13.032V4.96629C1.95002 3.108 3.39002 1.59771 5.15916 1.59771H12.8409C14.61 1.59771 16.05 3.108 16.05 4.96629V13.032ZM12.8409 0H5.15916C2.55002 0 0.428589 2.22771 0.428589 4.96629V13.032C0.428589 15.7723 2.55002 18 5.16002 18H12.84C15.45 18 17.5714 15.7723 17.5714 13.032V4.96629C17.5714 2.22771 15.45 0 12.84 0H12.8409Z" fill="white"/>
<path fill-rule="evenodd" clip-rule="evenodd" d="M9.00003 12.798C8.10631 12.7973 7.24937 12.442 6.61733 11.8101C5.98529 11.1783 5.6298 10.3214 5.62889 9.4277C5.62957 8.53367 5.98491 7.67642 6.61692 7.04408C7.24894 6.41175 8.106 6.05598 9.00003 6.05484C9.89414 6.05575 10.7513 6.41145 11.3834 7.04383C12.0155 7.67622 12.3707 8.5336 12.3712 9.4277C12.37 10.3213 12.0145 11.1779 11.3824 11.8096C10.7504 12.4413 9.89361 12.7973 9.00003 12.798ZM9.00003 4.2857C6.16461 4.2857 3.85718 6.59141 3.85718 9.4277C3.85877 10.7913 4.40108 12.0985 5.36519 13.0628C6.32929 14.0271 7.63647 14.5696 9.00003 14.5714C11.8355 14.5714 14.1429 12.2623 14.1429 9.4277C14.1413 8.06429 13.5989 6.7572 12.6348 5.79321C11.6706 4.82921 10.3634 4.28706 9.00003 4.2857ZM12.858 2.57141C12.5203 2.57141 12.1869 2.70684 11.9495 2.94684C11.7112 3.18684 11.5715 3.5177 11.5715 3.85541C11.5715 4.19398 11.7112 4.5257 11.9486 4.7657C12.1869 5.00313 12.5203 5.14284 12.858 5.14284C13.1966 5.14284 13.5275 5.00313 13.7657 4.7657C14.0057 4.5257 14.1429 4.19398 14.1429 3.85627C14.143 3.68751 14.1098 3.52038 14.0453 3.36444C13.9808 3.2085 13.8861 3.06682 13.7668 2.94749C13.6475 2.82815 13.5058 2.73352 13.3499 2.66899C13.1939 2.60446 13.0268 2.5713 12.858 2.57141Z" fill="white"/>
</g>
<defs>
<clipPath id="clip0_1_79">
<rect width="18" height="18" fill="white"/>
</clipPath>
</defs>
</svg>
