<svg width="18" height="18" viewBox="0 0 18 18" fill="none" xmlns="http://www.w3.org/2000/svg">
<path fill-rule="evenodd" clip-rule="evenodd" d="M0.227647 17.4706H4.08494V6.03954H0.227647V17.4706ZM2.18118 0.529419C0.861882 0.529419 0 1.38283 0 2.50412C0 3.60318 0.838588 4.47883 2.13141 4.47883H2.15788C3.50259 4.47883 4.33906 3.60318 4.33906 2.50412C4.31471 1.38177 3.50259 0.529419 2.18118 0.529419ZM18 10.9144V17.4706H14.1406V11.3538C14.1406 9.81848 13.5836 8.77024 12.1849 8.77024C11.1187 8.77024 10.4876 9.47648 10.2049 10.1605C10.1044 10.404 10.0779 10.746 10.0779 11.0859V17.4706H6.22059C6.22059 17.4706 6.27353 7.11318 6.22059 6.03954H10.08V7.65954C10.0726 7.67224 10.0609 7.68389 10.0535 7.69765H10.08V7.65848C10.5935 6.8813 11.5073 5.77165 13.5572 5.77165C16.0941 5.77165 18 7.40436 18 10.9144Z" fill="white"/>
</svg>
