<svg width="23" height="23" viewBox="0 0 23 23" fill="none" xmlns="http://www.w3.org/2000/svg">
<path d="M11.5 0C7.03917 0 3.41406 3.6252 3.41406 8.08594C3.41406 9.59531 3.83193 11.0643 4.627 12.3311L10.9519 22.6817C11.0598 22.8569 11.2215 22.9648 11.4102 22.9917C11.6662 23.0321 11.9493 22.9244 12.0975 22.6683L18.4405 12.2232C19.1951 10.9834 19.5859 9.54145 19.5859 8.08594C19.5859 3.6252 15.9608 0 11.5 0ZM11.5 12.1289C9.23603 12.1289 7.45703 10.2961 7.45703 8.08594C7.45703 5.86226 9.27632 4.04297 11.5 4.04297C13.7237 4.04297 15.543 5.86226 15.543 8.08594C15.543 10.2826 13.791 12.1289 11.5 12.1289Z" fill="#E7760D"/>
<path d="M11 0V4.04297C13.2237 4.04297 15.043 5.86226 15.043 8.08594C15.043 10.2826 13.291 12.1289 11 12.1289V22.9996C11.23 23.0049 11.4664 22.8947 11.5975 22.6683L17.9404 12.2232C18.6951 10.9834 19.0859 9.54145 19.0859 8.08594C19.0859 3.62519 15.4608 0 11 0Z" fill="#E7770D"/>
</svg>
