<svg width="75" height="75" viewBox="0 0 75 75" fill="none" xmlns="http://www.w3.org/2000/svg">
<mask id="mask0_1_216" style="mask-type:luminance" maskUnits="userSpaceOnUse" x="0" y="0" width="75" height="75">
<path d="M0 7.62939e-06H75V75H0V7.62939e-06Z" fill="white"/>
</mask>
<g mask="url(#mask0_1_216)">
<path d="M30.1758 72.0701H17.5781C9.48794 72.0701 2.92969 65.5118 2.92969 57.4216V17.5779C2.92969 9.4877 9.48794 2.92945 17.5781 2.92945H57.4219C65.5121 2.92945 72.0703 9.4877 72.0703 17.5779V32.2263" stroke="black" stroke-width="4.5" stroke-miterlimit="10" stroke-linecap="round" stroke-linejoin="round"/>
<path d="M31.2012 20.5078C31.2012 23.7439 28.5779 26.3672 25.3418 26.3672C22.1057 26.3672 19.4824 23.7439 19.4824 20.5078C19.4824 17.2717 22.1057 14.6484 25.3418 14.6484C28.5779 14.6484 31.2012 17.2717 31.2012 20.5078Z" stroke="black" stroke-width="4.5" stroke-miterlimit="10" stroke-linecap="round" stroke-linejoin="round"/>
<path d="M42.1875 28.418H60.3516" stroke="black" stroke-width="4.5" stroke-miterlimit="10" stroke-linecap="round" stroke-linejoin="round"/>
<path d="M17.2852 48.9258H38.6719" stroke="black" stroke-width="4.5" stroke-miterlimit="10" stroke-linecap="round" stroke-linejoin="round"/>
<path d="M17.2852 59.1797H26.9531" stroke="black" stroke-width="4.5" stroke-miterlimit="10" stroke-linecap="round" stroke-linejoin="round"/>
<path d="M69.7964 44.1684C72.8283 47.2003 72.8283 52.1161 69.7964 55.1479L59.5265 65.4177C56.9771 67.9671 53.7301 69.7046 50.195 70.4111L41.8945 72.0703L43.5537 63.7698C44.2602 60.2347 45.9976 56.9877 48.5471 54.4383L58.8169 44.1684C61.8487 41.1365 66.7644 41.1365 69.7964 44.1684Z" stroke="#EB7150" stroke-width="4.5" stroke-miterlimit="10" stroke-linecap="round" stroke-linejoin="round"/>
<path d="M42.1875 18.1641H60.3516" stroke="black" stroke-width="4.5" stroke-miterlimit="10" stroke-linecap="round" stroke-linejoin="round"/>
<path d="M33.1055 38.0859C31.3126 36.4541 28.9128 35.4492 26.272 35.4492H24.4116C21.7707 35.4492 19.3709 36.4541 17.5781 38.0859" stroke="black" stroke-width="4.5" stroke-miterlimit="10" stroke-linecap="round" stroke-linejoin="round"/>
</g>
</svg>
