<svg width="75" height="75" viewBox="0 0 75 75" fill="none" xmlns="http://www.w3.org/2000/svg">
<path d="M35.4476 38.0417C45.9525 38.0417 54.4684 29.5258 54.4684 19.0208C54.4684 8.51592 45.9525 0 35.4476 0C24.9427 0 16.4268 8.51592 16.4268 19.0208C16.4268 29.5258 24.9427 38.0417 35.4476 38.0417Z" fill="black"/>
<path fill-rule="evenodd" clip-rule="evenodd" d="M40.3968 70.9373C36.7897 67.0778 34.5833 61.8937 34.5833 56.1979C34.5833 50.3844 36.8831 45.107 40.6181 41.2198C38.9339 41.0919 37.2048 41.0227 35.4479 41.0227C23.9593 41.0227 13.7884 43.8966 7.47346 48.2022C2.656 51.4876 0 55.6618 0 60.0435V65.0616C0 66.6178 0.619042 68.1153 1.72225 69.2185C2.82546 70.3182 4.31946 70.9407 5.87917 70.9407L40.3968 70.9373Z" fill="black"/>
<path fill-rule="evenodd" clip-rule="evenodd" d="M56.1982 38.0417C46.176 38.0417 38.042 46.1757 38.042 56.198C38.042 66.2202 46.176 74.3542 56.1982 74.3542C66.2205 74.3542 74.3545 66.2202 74.3545 56.198C74.3545 46.1757 66.2205 38.0417 56.1982 38.0417ZM58.792 53.6042V50.1459C58.792 48.7142 57.63 47.5522 56.1982 47.5522C54.7665 47.5522 53.6045 48.7142 53.6045 50.1459V53.6042H50.1462C48.7144 53.6042 47.5524 54.7662 47.5524 56.198C47.5524 57.6297 48.7144 58.7917 50.1462 58.7917H53.6045V62.2501C53.6045 63.6818 54.7665 64.8438 56.1982 64.8438C57.63 64.8438 58.792 63.6818 58.792 62.2501V58.7917H62.2503C63.6821 58.7917 64.8441 57.6297 64.8441 56.198C64.8441 54.7662 63.6821 53.6042 62.2503 53.6042H58.792Z" fill="#EB7150"/>
</svg>
