<svg width="76" height="78" viewBox="0 0 76 78" fill="none" xmlns="http://www.w3.org/2000/svg">
<path fill-rule="evenodd" clip-rule="evenodd" d="M50.2778 73.2965H4.2403C1.81727 73.2965 0 71.3278 0 69.0562V4.2403C0 1.96871 1.96871 0 4.2403 0H50.2778C52.7008 0 54.5181 1.96871 54.5181 4.2403V33.1652C47.8548 28.622 38.7684 29.5306 32.8623 35.4368C26.3504 41.9486 26.5018 53.0037 33.1652 59.5156C38.9199 65.1188 47.8548 65.876 54.5181 61.4843V69.0562C54.5181 71.3278 52.7008 73.2965 50.2778 73.2965ZM29.0763 65.7246H8.32915C6.9662 65.7246 6.9662 63.6044 8.32915 63.6044H28.9249C30.4393 63.6044 30.4393 65.7246 29.0763 65.7246ZM24.836 56.3354H8.32915C6.9662 56.3354 6.9662 54.2152 8.32915 54.2152H24.836C26.3504 54.2152 26.3504 56.3354 24.836 56.3354ZM22.5644 47.0976H8.32915C6.9662 47.0976 6.9662 44.826 8.32915 44.826H22.5644C24.0788 44.826 24.0788 47.0976 22.5644 47.0976ZM25.5932 37.7083H8.32915C6.9662 37.7083 6.9662 35.4368 8.32915 35.4368H25.5932C27.1076 35.4368 27.1076 37.7083 25.5932 37.7083ZM46.0375 28.3191H8.32915C6.9662 28.3191 6.9662 26.0475 8.32915 26.0475H46.0375C47.5519 26.0475 47.5519 28.3191 46.0375 28.3191ZM35.7396 18.9299H18.7785C17.2641 18.9299 17.2641 16.6583 18.7785 16.6583H35.7396C37.254 16.6583 37.254 18.9299 35.7396 18.9299Z" fill="black"/>
<path fill-rule="evenodd" clip-rule="evenodd" d="M37.4053 39.6771C41.4942 35.4368 48.309 35.4368 52.5493 39.5257C59.364 46.3404 54.6694 58.0012 45.1287 58.0012C36.0424 58.0012 30.5906 46.9462 37.4053 39.6771ZM30.1363 47.4005C30.1363 34.0739 46.0374 27.562 55.4266 36.6483C61.0298 42.1001 61.4842 50.8836 56.4867 56.7897L60.4241 60.7271L58.9097 62.2415L54.9723 58.4556C45.7345 66.7847 30.2877 60.4243 30.1363 47.4005Z" fill="#EB7150"/>
<path fill-rule="evenodd" clip-rule="evenodd" d="M60.4244 63.3015C60.1215 63.3015 59.8186 63.15 59.6672 62.9986L54.2154 57.6982C53.1553 56.6381 54.6697 55.1237 55.7298 56.0324L61.1816 61.4842C61.9388 62.0899 61.333 63.3015 60.4244 63.3015Z" fill="#EB7150"/>
<path fill-rule="evenodd" clip-rule="evenodd" d="M68.7533 77.5369C68.6018 77.5369 68.299 77.3854 67.9961 77.234L57.6982 67.0876C56.6381 66.0275 56.7896 64.3617 57.6982 63.453L61.6356 59.3642C62.5443 58.4555 64.3615 58.3041 65.4216 59.3642L75.7195 69.5106C76.0224 69.8135 76.1738 70.5707 75.7195 71.025L69.6619 77.0826C69.359 77.3854 69.0562 77.5369 68.7533 77.5369Z" fill="#EB7150"/>
</svg>
