<svg width="87" height="86" viewBox="0 0 87 86" fill="none" xmlns="http://www.w3.org/2000/svg">
<path d="M28.9361 70.393C30.1146 68.9165 29.8843 66.7492 28.4078 65.5707C27.7034 65.0018 26.9448 64.7308 26.1592 64.7308C26.0237 64.7308 25.8883 64.7444 25.7528 64.7579C24.8317 64.8663 24.0189 65.3269 23.4636 66.0583L18.9257 71.9237C18.4109 72.5739 18.1536 73.3054 18.1536 74.064C18.1536 75.107 18.6277 76.0823 19.4404 76.746C20.9034 77.9245 23.0707 77.6807 24.2628 76.2178L28.9361 70.393Z" fill="black"/>
<path d="M16.948 70.0272L21.5129 64.1483C22.0277 63.471 22.3121 62.6718 22.3121 61.8319C22.3121 60.667 21.7839 59.5833 20.8627 58.8518C20.2125 58.3371 19.4133 58.0662 18.587 58.0662C18.4245 58.0662 18.2619 58.0797 18.0994 58.0933C17.097 58.2152 16.2165 58.7299 15.6069 59.5156L11.042 65.3945C9.78219 67.0335 10.0667 69.3905 11.6922 70.6503C12.4914 71.2734 13.4667 71.5443 14.4555 71.4224C15.4579 71.314 16.3384 70.8128 16.948 70.0272Z" fill="black"/>
<path d="M8.26495 52.0248L12.3423 46.498L13.8188 44.4932C13.8323 44.4797 13.8323 44.4797 13.8459 44.4661L22.7049 32.4509L22.7455 32.4103L22.9487 32.1394C23.1248 31.9091 23.0842 31.5298 22.8268 31.3402L16.406 26.274C16.2706 26.1656 16.1351 26.1521 16.0403 26.1521C16.0132 26.1521 15.9861 26.1521 15.959 26.1521C15.8642 26.1656 15.6881 26.2063 15.5526 26.3824L0.123868 47.3243C-0.0793199 47.5952 -0.0251365 47.961 0.232235 48.1777L6.5988 53.2032C6.73426 53.3116 6.89681 53.3522 7.07291 53.3252C7.18128 53.3116 7.34383 53.2574 7.47929 53.0813L8.2514 52.0383C8.2514 52.0383 8.2514 52.0248 8.26495 52.0248Z" fill="black"/>
<path d="M35.2212 76.475L35.2754 76.3938C35.289 76.3802 35.3025 76.3667 35.3025 76.3531C35.3161 76.326 35.3432 76.2854 35.3567 76.2583C35.6954 75.7707 35.8714 75.1882 35.8714 74.5922C35.8714 73.644 35.438 72.777 34.693 72.2216C34.1647 71.8288 33.5551 71.6392 32.932 71.6392C32.0651 71.6392 31.1981 72.0184 30.6292 72.7364L27.175 77.0169C26.6602 77.6535 26.4435 78.4527 26.5519 79.2655C26.6602 80.0647 27.0666 80.7555 27.7168 81.2432L27.9606 81.4464C28.5025 81.8528 29.2881 82.0424 30.0738 81.934C30.8595 81.8257 31.5368 81.4057 32.0109 80.7826L35.2212 76.475Z" fill="black"/>
<path d="M43.3488 24.6485C49.9592 24.6485 55.3369 19.2707 55.3369 12.6604C55.3369 6.04996 49.9592 0.658691 43.3488 0.658691C36.7384 0.658691 31.3472 6.03641 31.3472 12.6604C31.3472 19.2707 36.7384 24.6485 43.3488 24.6485ZM37.3751 12.3623C37.9034 11.8341 38.7568 11.8341 39.2851 12.3623L41.2221 14.2994L47.3991 8.12248C47.9273 7.59419 48.7807 7.59419 49.309 8.12248C49.8373 8.65077 49.8373 9.50416 49.309 10.0324L42.1839 17.1576C41.9265 17.415 41.5879 17.5504 41.2221 17.5504C40.8564 17.5504 40.5177 17.4014 40.2604 17.1576L37.3615 14.2588C36.8468 13.744 36.8468 12.8906 37.3751 12.3623Z" fill="#EB7150"/>
<path d="M67.799 40.9578L64.846 33.6701L63.0986 34.6454C61.8795 35.3363 60.4029 35.6207 58.9671 35.4175L43.6873 33.1554C41.818 32.8844 39.8809 33.5076 38.5263 34.808L37.0769 36.2032C37.0769 36.2032 37.0769 36.2032 37.0634 36.2167L31.4554 41.5945C31.0896 41.9466 31.0084 42.353 31.0084 42.6375C31.0084 43.0845 31.2251 43.6805 31.8347 43.965C34.598 45.2925 37.849 45.2248 40.5582 43.8024L42.0347 43.0303C42.9829 42.5291 44.026 42.2853 45.069 42.2853C46.532 42.2853 47.9814 42.7729 49.1599 43.7347L49.8913 44.3172L63.532 55.2487C64.1958 55.7635 64.8866 56.1969 65.591 56.4949C65.8213 56.5898 66.0922 56.6981 66.3496 56.7929C66.5257 56.8607 66.7153 56.9284 66.905 56.969C67.1623 57.0503 67.352 57.091 67.5416 57.118C67.8396 57.1722 68.1106 57.2264 68.3815 57.24C68.7066 57.2806 68.9369 57.2941 69.1671 57.2941C69.7496 57.3077 70.2508 57.2941 70.7114 57.2264L74.1791 56.7388L67.799 40.9578Z" fill="black"/>
<path d="M76.0213 26.5856C75.94 26.3824 75.8046 26.2875 75.6962 26.2469C75.6149 26.2063 75.4253 26.1656 75.2221 26.2605L66.9185 29.9449C66.6069 30.0804 66.4579 30.4326 66.5798 30.7306L67.1623 32.1665L68.3814 35.1601L77.2269 56.9961C77.4301 57.3483 77.7552 57.4296 78.0126 57.3076L86.3297 53.6367C86.6277 53.5012 86.7632 53.1626 86.6413 52.851L76.0213 26.5856Z" fill="black"/>
<path d="M68.138 59.9085C67.8535 59.895 67.4878 59.8272 67.122 59.7595C66.8511 59.7189 66.526 59.6511 66.2009 59.5428C65.9842 59.4886 65.7132 59.3938 65.4559 59.3125C65.1579 59.2041 64.8463 59.0822 64.5347 58.9468C63.6136 58.5404 62.7331 57.9985 61.8798 57.3348L47.494 45.8208C46.302 44.859 44.6629 44.6965 43.3083 45.4009L41.8318 46.173C38.3912 47.9881 34.219 48.0694 30.6971 46.3897C29.2342 45.6989 28.313 44.2495 28.313 42.624C28.313 41.4861 28.76 40.4295 29.5863 39.6303L32.7425 36.6096H27.1481C26.1321 36.6096 25.1568 36.2438 24.4118 35.5801L24.019 35.2144L16.0134 46.0917C15.9727 46.1323 15.9456 46.1865 15.905 46.2272L15.1871 47.2025L12.9655 50.2232L11.2452 52.5531L12.0715 53.1762C13.25 54.0296 13.9679 55.4519 13.9679 56.9691V57.3619C14.9839 56.3053 16.3114 55.6145 17.7879 55.4248C19.5082 55.2081 21.2014 55.6687 22.556 56.7252C24.1409 57.9715 25.0349 59.8272 25.0349 61.832C25.0349 61.9404 25.0078 62.0488 25.0078 62.1571C25.1568 62.13 25.3058 62.0759 25.4549 62.0623C27.1074 61.8727 28.733 62.3332 30.0334 63.3898C31.7808 64.8121 32.5664 66.9253 32.3497 68.9572C33.7178 68.8082 35.1402 69.1604 36.3322 70.0544C37.7681 71.1245 38.6079 72.7771 38.6079 74.5923C38.6079 74.6329 38.5944 74.6735 38.5944 74.7277C39.976 74.511 41.4255 74.7819 42.631 75.554C44.2836 76.6241 45.2725 78.4393 45.2725 80.417C45.2725 81.5548 44.9474 82.6385 44.3514 83.5596L44.392 83.5867C45.6247 84.5214 47.5076 84.413 48.6048 83.3023C49.2685 82.6385 49.6072 81.7445 49.5394 80.8098C49.4853 79.8887 49.0247 79.0353 48.2797 78.4664L40.2199 72.1811C39.6374 71.7205 39.529 70.8671 39.9896 70.2847C40.4502 69.7022 41.3035 69.5938 41.886 70.0544L51.0972 77.2337C52.2486 78.1142 53.8741 78.0058 54.9036 76.9763C55.5132 76.3668 55.8112 75.5405 55.7435 74.6871C55.6757 73.8337 55.2423 73.0616 54.5379 72.5739C53.8335 72.0863 54.5379 72.5739 54.5243 72.5739L45.1912 65.8958C44.5816 65.4623 44.4462 64.6089 44.8797 63.9994C45.3131 63.3898 46.153 63.2544 46.7761 63.6878L56.5427 70.6775C58.0327 71.7341 60.1052 71.4767 61.2837 70.0815C61.9204 69.3229 62.2049 68.3612 62.0829 67.3858C61.961 66.4105 61.4598 65.5436 60.6606 64.9611L55.9737 61.4798L50.4064 57.3483C49.8104 56.9013 49.6749 56.0615 50.1219 55.4519C50.2303 55.3029 50.3657 55.1945 50.5012 55.1133L50.5148 55.0997C50.9753 54.8288 51.5578 54.8424 52.0183 55.1675L63.3427 63.5388C64.5754 64.4464 66.3905 64.3109 67.5148 63.2137C68.3682 62.3603 68.6527 61.087 68.287 59.9492C68.2328 59.9221 68.1786 59.9221 68.138 59.9085Z" fill="black"/>
<path d="M41.4252 83.0718L42.0618 82.083C42.3869 81.5953 42.5495 81.0128 42.5495 80.4033C42.5495 79.3467 42.0212 78.3714 41.1542 77.816C40.1654 77.1794 38.8785 77.1794 37.8626 77.7889C37.7542 77.8431 37.7136 77.8973 37.6459 77.9515C37.6323 77.965 37.6052 77.9786 37.5917 77.9921C37.5781 77.9921 37.5781 78.0057 37.5646 78.0192C37.5104 78.0598 37.4427 78.1411 37.3885 78.1953C37.0092 78.6694 36.0474 79.9156 35.1941 81.0399C34.7064 81.7308 34.5168 82.5571 34.6658 83.3834C34.8283 84.2232 35.3024 84.9276 36.0204 85.3882L36.21 85.5101C36.8737 85.9435 37.7 86.1061 38.4857 85.93C39.2985 85.7539 39.9893 85.2798 40.4363 84.589L41.4252 83.0718C41.4116 83.0854 41.4116 83.0854 41.4252 83.0718Z" fill="black"/>
</svg>
