<svg width="21" height="21" viewBox="0 0 21 21" fill="none" xmlns="http://www.w3.org/2000/svg">
<g clip-path="url(#clip0_1_126)">
<path d="M13.125 5.6875C12.642 5.6875 12.25 5.2955 12.25 4.8125V3.5H8.75V4.8125C8.75 5.2955 8.358 5.6875 7.875 5.6875C7.392 5.6875 7 5.2955 7 4.8125V3.5C7 2.53487 7.78488 1.75 8.75 1.75H12.25C13.2151 1.75 14 2.53487 14 3.5V4.8125C14 5.2955 13.608 5.6875 13.125 5.6875Z" fill="#E7760D"/>
<path d="M11.1213 13.4575C10.9637 13.5187 10.7362 13.5625 10.5 13.5625C10.2638 13.5625 10.0362 13.5187 9.82625 13.44L0 10.1675V16.8437C0 18.1737 1.07625 19.25 2.40625 19.25H18.5938C19.9237 19.25 21 18.1737 21 16.8437V10.1675L11.1213 13.4575Z" fill="#E7760D"/>
<path d="M21 6.78125V8.785L10.71 12.215C10.64 12.2413 10.57 12.25 10.5 12.25C10.43 12.25 10.36 12.2413 10.29 12.215L0 8.785V6.78125C0 5.45125 1.07625 4.375 2.40625 4.375H18.5938C19.9237 4.375 21 5.45125 21 6.78125Z" fill="#E7760D"/>
</g>
<defs>
<clipPath id="clip0_1_126">
<rect width="21" height="21" fill="white"/>
</clipPath>
</defs>
</svg>
