<svg width="18" height="16" viewBox="0 0 18 16" fill="none" xmlns="http://www.w3.org/2000/svg">
<path fill-rule="evenodd" clip-rule="evenodd" d="M16.1674 4.8629C16.1674 4.70004 16.1589 4.54662 16.152 4.38547C16.8771 3.87983 17.5034 3.24565 18 2.51433C17.324 2.80116 16.609 2.98547 15.8786 3.06119C16.6476 2.61943 17.2259 1.90861 17.502 1.06576C16.7751 1.48018 15.9825 1.76663 15.1586 1.91262C14.8134 1.5419 14.397 1.24469 13.9342 1.03878C13.4714 0.832879 12.9719 0.722523 12.4654 0.71433C11.9827 0.705666 11.503 0.793381 11.0546 0.972342C10.6061 1.1513 10.1978 1.41792 9.85367 1.75658C9.5095 2.09524 9.23634 2.49914 9.05017 2.94465C8.86399 3.39017 8.76855 3.86834 8.76943 4.35119C8.76943 4.63833 8.79943 4.91776 8.86629 5.19033C5.79429 5.00176 3.072 3.49576 1.25314 1.22004C0.922684 1.78538 0.749 2.42864 0.75 3.08347C0.75 4.37776 1.404 5.52719 2.39657 6.20004C1.80707 6.17472 1.2322 6.00867 0.72 5.71576V5.76633C0.720024 6.62542 1.01475 7.4585 1.55497 8.12648C2.09519 8.79446 2.8482 9.25691 3.68829 9.43661C3.37122 9.52101 3.04439 9.56309 2.71629 9.56176C2.48182 9.55777 2.24824 9.53194 2.01857 9.48462C2.24985 10.224 2.70704 10.8724 3.32586 11.3386C3.94468 11.8047 4.69403 12.0652 5.46857 12.0835C4.70231 12.6849 3.82467 13.1289 2.88615 13.3899C1.94762 13.6509 0.966758 13.7236 0 13.604C1.68343 14.704 3.65138 15.2884 5.66229 15.2858C12.4509 15.2858 16.1674 9.70233 16.1674 4.8629Z" fill="white"/>
</svg>
